<svg width="120" height="120" viewBox="0 0 120 120" fill="none" xmlns="http://www.w3.org/2000/svg">
  <defs>
    <linearGradient id="giraffeBodyGrad" x1="60" y1="0" x2="60" y2="110" gradientUnits="userSpaceOnUse">
      <stop stop-color="#FBBF24" /> <stop offset="1" stop-color="#D97706" /> </linearGradient>

    <linearGradient id="giraffeSnoutGrad" x1="60" y1="50" x2="60" y2="90" gradientUnits="userSpaceOnUse">
      <stop stop-color="#FDE68A" /> <stop offset="1" stop-color="#F59E0B" /> </linearGradient>
  </defs>

  <path d="M48 110L52 65H68L72 110H48Z" fill="url(#giraffeBodyGrad)" />
  
  <g fill="#292524" opacity="0.2">
    <path d="M54 95L58 85L62 88L54 95Z" />
    <path d="M64 75L68 82L60 80L64 75Z" />
    <path d="M56 72L52 78L58 80L56 72Z" />
  </g>

  <path d="M60 15L40 30L45 65L60 75L75 65L80 30L60 15Z" fill="url(#giraffeBodyGrad)" />

  <g>
    <path d="M51 20 L49 4 L55 4 L57 20 Z" fill="url(#giraffeBodyGrad)"/>
    <path d="M49 4 L55 4 L54 1 L50 1 Z" fill="#292524"/>

    <path d="M69 20 L71 4 L65 4 L63 20 Z" fill="url(#giraffeBodyGrad)"/>
    <path d="M71 4 L65 4 L66 1 L70 1 Z" fill="#292524"/>
  </g>

  <path d="M48 20L35 25L40 30L48 20Z" fill="#D97706" />
  <path d="M72 20L85 25L80 30L72 20Z" fill="#D97706" />

  <path d="M45 65L50 45H70L75 65L60 75L45 65Z" fill="url(#giraffeSnoutGrad)" />

  <g fill="#292524">
    <path d="M48 52L58 55L48 58V52Z" />
    <path d="M72 52L62 55L72 58V52Z" />
  </g>

  <g stroke="#292524" stroke-width="2" stroke-linecap="round" opacity="0.4">
    <path d="M56 68L58 70" />
    <path d="M64 68L62 70" />
  </g>
</svg>